<svg width="462" height="186" viewBox="0 0 462 186" fill="none" xmlns="http://www.w3.org/2000/svg">
<path d="M252.4 155.4H288.8L293.7 132.6L309.3 120.5L328.1 155.4H370.4L338 100.7L384.6 63.3H337.8L301.9 94.2L316 27.1H279.6L252.4 155.4ZM203.9 158.6C230.4 158.6 252.7 148.2 252.7 125.7C252.7 112.1 243.3 101.5 220.8 97L210.7 95C202.8 93.5 199.8 91.5 199.8 88.1C199.8 84.4 203 81.4 209.4 81.4C217.1 81.4 221 85.9 222 91.3L257.1 85.4C254.9 72.8 241.8 60.2 211.8 60.2C184.1 60.2 166.3 72.8 166.3 92.6C166.3 106.9 176.2 114.4 196.2 119.1L207.9 121.8C213.6 123 216.3 125.5 216.3 129C216.3 133.7 211.8 136.7 204.9 136.7C195.3 136.7 192 131 191 125.1L155.6 129.5C157.2 147 173.5 158.6 203.9 158.6ZM108.7 77.7H88.9L93.4 56.7H111.5C118.9 56.7 123.6 59.7 123.6 65.6C123.5 72.8 118.1 77.7 108.7 77.7ZM99.7 126.2H78.7L83.7 102.9H103.3C111.2 102.9 116.7 106.4 116.7 113.1C116.7 121 110.5 126.2 99.7 126.2ZM33.7 155.4H103.5C132.7 155.4 155.7 142 155.7 116.8C155.7 102.9 145.3 92.1 129.7 89.8C149.5 86.3 161.6 73.2 161.6 55.9C161.6 38.3 146 27.2 121.3 27.2H60.7L33.7 155.4ZM203.9 172.2C179.9 172.2 162.1 165.3 151.9 153.9C139.8 163.8 122.2 169 103.4 169H16.8L49.5 13.6H121.3C153 13.6 174.8 29.7 175.3 54.9C185 49.5 197.6 46.5 211.9 46.5C233.7 46.5 249 52.4 258.4 61.4L268.5 13.6H332.9L323.5 57.6L332.9 49.7H423.2L355.9 103.9L394.5 169H320L305.6 142.5L299.7 169H235.6L236.1 166.5C226.5 170.5 215.1 172.2 203.9 172.2ZM204 185.8C213 185.8 222 184.7 230.7 182.6H418.5L373.7 107.1L461.8 36.1H342L349.7 0H257.4L249 39.6C238.9 35.4 226.5 32.9 211.9 32.9C203 32.9 194.1 34 185.4 36.4C176.5 13.9 152.5 0 121.3 0H38.4L0 182.6H103.4C120.5 182.6 137.3 178.6 150.7 171C163.8 180.6 182.1 185.8 204 185.8Z" fill="black"/>
</svg>
